{
    "asset" : {
        "generator" : "Khronos glTF Blender I/O v1.8.19",
        "version" : "2.0"
    },
    "scene" : 0,
    "scenes" : [
        {
            "name" : "Scene",
            "nodes" : [
                0,
                1,
                2,
                3,
                4,
                5,
                6
            ]
        }
    ],
    "nodes" : [
        {
            "mesh" : 0,
            "name" : "Cone.000",
            "rotation" : [
                0,
                0.9871605038642883,
                0,
                0.15973155200481415
            ],
            "scale" : [
                0.2550431191921234,
                0.21521630883216858,
                0.2550431191921234
            ],
            "translation" : [
                3.515989065170288,
                0.45220428705215454,
                2.799089193344116
            ]
        },
        {
            "mesh" : 1,
            "name" : "Plane.001",
            "scale" : [
                37.619964599609375,
                10.951354026794434,
                10.951354026794434
            ],
            "translation" : [
                -2.4634780883789062,
                11.873756408691406,
                -21.64957618713379
            ]
        },
        {
            "mesh" : 2,
            "name" : "Icosphere.002",
            "scale" : [
                0.24013113975524902,
                0.24013113975524902,
                0.24013113975524902
            ],
            "translation" : [
                14.302108764648438,
                -0.5465221405029297,
                -1.4571046829223633
            ]
        },
        {
            "mesh" : 3,
            "name" : "Icosphere.001",
            "rotation" : [
                -0.024877775460481644,
                -0.45811155438423157,
                -0.8882607221603394,
                0.022533433511853218
            ],
            "translation" : [
                2.080029010772705,
                3.0057809352874756,
                -7.4816694259643555
            ]
        },
        {
            "mesh" : 4,
            "name" : "Icosphere",
            "translation" : [
                -4.033570766448975,
                3.8774561882019043,
                -3.225193977355957
            ]
        },
        {
            "mesh" : 5,
            "name" : "Cone.004",
            "rotation" : [
                0,
                0.9109402894973755,
                0,
                0.4125384986400604
            ],
            "scale" : [
                0.2550431191921234,
                0.21521630883216858,
                0.2550431191921234
            ],
            "translation" : [
                0.9847190380096436,
                0.5643919706344604,
                2.464268445968628
            ]
        },
        {
            "mesh" : 6,
            "name" : "Plane",
            "scale" : [
                -7.077310562133789,
                -7.077310562133789,
                -7.077310562133789
            ],
            "translation" : [
                -1.6464056968688965,
                0,
                -1.7683067321777344
            ]
        }
    ],
    "materials" : [
        {
            "doubleSided" : true,
            "name" : "Material.002",
            "pbrMetallicRoughness" : {
                "baseColorFactor" : [
                    0.08713973313570023,
                    0.0367579385638237,
                    0,
                    1
                ],
                "metallicFactor" : 0,
                "roughnessFactor" : 0.5
            }
        },
        {
            "doubleSided" : true,
            "name" : "Material.005",
            "pbrMetallicRoughness" : {
                "baseColorFactor" : [
                    0,
                    0.09999960660934448,
                    0,
                    1
                ],
                "metallicFactor" : 0,
                "roughnessFactor" : 0.5
            }
        },
        {
            "doubleSided" : true,
            "name" : "Material.007",
            "pbrMetallicRoughness" : {
                "baseColorFactor" : [
                    1,
                    1,
                    1,
                    1
                ],
                "metallicFactor" : 0,
                "roughnessFactor" : 0.5
            }
        },
        {
            "doubleSided" : true,
            "name" : "Material.001",
            "pbrMetallicRoughness" : {
                "baseColorFactor" : [
                    0,
                    0.38461536169052124,
                    0,
                    1
                ],
                "metallicFactor" : 0,
                "roughnessFactor" : 0.5
            }
        },
        {
            "doubleSided" : true,
            "name" : "Material.003",
            "pbrMetallicRoughness" : {
                "baseColorFactor" : [
                    1,
                    1,
                    1,
                    1
                ],
                "metallicFactor" : 0,
                "roughnessFactor" : 0.5
            }
        },
        {
            "doubleSided" : true,
            "name" : "Material.004",
            "pbrMetallicRoughness" : {
                "baseColorFactor" : [
                    0,
                    0,
                    1,
                    1
                ],
                "metallicFactor" : 0,
                "roughnessFactor" : 0.5
            }
        }
    ],
    "meshes" : [
        {
            "name" : "Cone.009",
            "primitives" : [
                {
                    "attributes" : {
                        "POSITION" : 0,
                        "NORMAL" : 1
                    },
                    "indices" : 2,
                    "material" : 0
                },
                {
                    "attributes" : {
                        "POSITION" : 3,
                        "NORMAL" : 4
                    },
                    "indices" : 5,
                    "material" : 1
                }
            ]
        },
        {
            "name" : "Plane.002",
            "primitives" : [
                {
                    "attributes" : {
                        "POSITION" : 6,
                        "NORMAL" : 7
                    },
                    "indices" : 8
                }
            ]
        },
        {
            "name" : "Icosphere.003",
            "primitives" : [
                {
                    "attributes" : {
                        "POSITION" : 9,
                        "NORMAL" : 10
                    },
                    "indices" : 11
                }
            ]
        },
        {
            "name" : "Icosphere.002",
            "primitives" : [
                {
                    "attributes" : {
                        "POSITION" : 12,
                        "NORMAL" : 13
                    },
                    "indices" : 14,
                    "material" : 2
                }
            ]
        },
        {
            "name" : "Icosphere.001",
            "primitives" : [
                {
                    "attributes" : {
                        "POSITION" : 15,
                        "NORMAL" : 16
                    },
                    "indices" : 14,
                    "material" : 2
                }
            ]
        },
        {
            "name" : "Cone.004",
            "primitives" : [
                {
                    "attributes" : {
                        "POSITION" : 17,
                        "NORMAL" : 18
                    },
                    "indices" : 19,
                    "material" : 0
                },
                {
                    "attributes" : {
                        "POSITION" : 20,
                        "NORMAL" : 21
                    },
                    "indices" : 22,
                    "material" : 1
                }
            ]
        },
        {
            "name" : "Plane.001",
            "primitives" : [
                {
                    "attributes" : {
                        "POSITION" : 23,
                        "NORMAL" : 24
                    },
                    "indices" : 25,
                    "material" : 3
                },
                {
                    "attributes" : {
                        "POSITION" : 26,
                        "NORMAL" : 27
                    },
                    "indices" : 28,
                    "material" : 0
                },
                {
                    "attributes" : {
                        "POSITION" : 29,
                        "NORMAL" : 30
                    },
                    "indices" : 31,
                    "material" : 4
                },
                {
                    "attributes" : {
                        "POSITION" : 32,
                        "NORMAL" : 33
                    },
                    "indices" : 34,
                    "material" : 5
                }
            ]
        }
    ],
    "accessors" : [
        {
            "bufferView" : 0,
            "componentType" : 5126,
            "count" : 12,
            "max" : [
                0.4386634826660156,
                0.5124521851539612,
                0.253262996673584
            ],
            "min" : [
                -0.4386634826660156,
                -2.6923165321350098,
                -0.5065245628356934
            ],
            "type" : "VEC3"
        },
        {
            "bufferView" : 1,
            "componentType" : 5126,
            "count" : 12,
            "type" : "VEC3"
        },
        {
            "bufferView" : 2,
            "componentType" : 5123,
            "count" : 12,
            "type" : "SCALAR"
        },
        {
            "bufferView" : 3,
            "componentType" : 5126,
            "count" : 36,
            "max" : [
                1.3877058029174805,
                4.22185754776001,
                0.8011927604675293
            ],
            "min" : [
                -1.3877058029174805,
                -1.3699302673339844,
                -1.602384090423584
            ],
            "type" : "VEC3"
        },
        {
            "bufferView" : 4,
            "componentType" : 5126,
            "count" : 36,
            "type" : "VEC3"
        },
        {
            "bufferView" : 5,
            "componentType" : 5123,
            "count" : 36,
            "type" : "SCALAR"
        },
        {
            "bufferView" : 6,
            "componentType" : 5126,
            "count" : 4,
            "max" : [
                1,
                0,
                1
            ],
            "min" : [
                -1,
                0,
                -1
            ],
            "type" : "VEC3"
        },
        {
            "bufferView" : 7,
            "componentType" : 5126,
            "count" : 4,
            "type" : "VEC3"
        },
        {
            "bufferView" : 8,
            "componentType" : 5123,
            "count" : 6,
            "type" : "SCALAR"
        },
        {
            "bufferView" : 9,
            "componentType" : 5126,
            "count" : 60,
            "max" : [
                0.8944249749183655,
                1,
                0.8506399989128113
            ],
            "min" : [
                -0.8944249749183655,
                -1,
                -0.8506399989128113
            ],
            "type" : "VEC3"
        },
        {
            "bufferView" : 10,
            "componentType" : 5126,
            "count" : 60,
            "type" : "VEC3"
        },
        {
            "bufferView" : 11,
            "componentType" : 5123,
            "count" : 60,
            "type" : "SCALAR"
        },
        {
            "bufferView" : 12,
            "componentType" : 5126,
            "count" : 180,
            "max" : [
                1.7213492393493652,
                1,
                0.8506399989128113
            ],
            "min" : [
                -1.7418537139892578,
                -1,
                -0.8506399989128113
            ],
            "type" : "VEC3"
        },
        {
            "bufferView" : 13,
            "componentType" : 5126,
            "count" : 180,
            "type" : "VEC3"
        },
        {
            "bufferView" : 14,
            "componentType" : 5123,
            "count" : 180,
            "type" : "SCALAR"
        },
        {
            "bufferView" : 15,
            "componentType" : 5126,
            "count" : 180,
            "max" : [
                1.7213492393493652,
                1,
                0.8506399989128113
            ],
            "min" : [
                -1.7418537139892578,
                -1,
                -0.8506399989128113
            ],
            "type" : "VEC3"
        },
        {
            "bufferView" : 16,
            "componentType" : 5126,
            "count" : 180,
            "type" : "VEC3"
        },
        {
            "bufferView" : 17,
            "componentType" : 5126,
            "count" : 96,
            "max" : [
                0.27375656366348267,
                -0.008826017379760742,
                16.815099716186523
            ],
            "min" : [
                -19.213253021240234,
                -3.213594913482666,
                -0.793329119682312
            ],
            "type" : "VEC3"
        },
        {
            "bufferView" : 18,
            "componentType" : 5126,
            "count" : 96,
            "type" : "VEC3"
        },
        {
            "bufferView" : 19,
            "componentType" : 5123,
            "count" : 96,
            "type" : "SCALAR"
        },
        {
            "bufferView" : 20,
            "componentType" : 5126,
            "count" : 288,
            "max" : [
                0.8660253882408142,
                3.7005794048309326,
                17.157045364379883
            ],
            "min" : [
                -19.805522918701172,
                -2.0490617752075195,
                -1.4772223234176636
            ],
            "type" : "VEC3"
        },
        {
            "bufferView" : 21,
            "componentType" : 5126,
            "count" : 288,
            "type" : "VEC3"
        },
        {
            "bufferView" : 22,
            "componentType" : 5123,
            "count" : 288,
            "type" : "SCALAR"
        },
        {
            "bufferView" : 23,
            "componentType" : 5126,
            "count" : 4553,
            "max" : [
                1.496342420578003,
                0,
                0.8779637813568115
            ],
            "min" : [
                -1.496342420578003,
                -0.19516344368457794,
                -0.8989428281784058
            ],
            "type" : "VEC3"
        },
        {
            "bufferView" : 24,
            "componentType" : 5126,
            "count" : 4553,
            "type" : "VEC3"
        },
        {
            "bufferView" : 25,
            "componentType" : 5123,
            "count" : 8598,
            "type" : "SCALAR"
        },
        {
            "bufferView" : 26,
            "componentType" : 5126,
            "count" : 3800,
            "max" : [
                1.3092997074127197,
                0,
                0.8779637813568115
            ],
            "min" : [
                -1.496342420578003,
                -0.47077345848083496,
                -0.05725008249282837
            ],
            "type" : "VEC3"
        },
        {
            "bufferView" : 27,
            "componentType" : 5126,
            "count" : 3800,
            "type" : "VEC3"
        },
        {
            "bufferView" : 28,
            "componentType" : 5123,
            "count" : 3996,
            "type" : "SCALAR"
        },
        {
            "bufferView" : 29,
            "componentType" : 5126,
            "count" : 450,
            "max" : [
                1.0287353992462158,
                -0.1547553539276123,
                0.6909210681915283
            ],
            "min" : [
                -1.2157783508300781,
                -0.5774256587028503,
                0.223314106464386
            ],
            "type" : "VEC3"
        },
        {
            "bufferView" : 30,
            "componentType" : 5126,
            "count" : 450,
            "type" : "VEC3"
        },
        {
            "bufferView" : 31,
            "componentType" : 5123,
            "count" : 468,
            "type" : "SCALAR"
        },
        {
            "bufferView" : 32,
            "componentType" : 5126,
            "count" : 790,
            "max" : [
                1.2157783508300781,
                0,
                0.8779637813568115
            ],
            "min" : [
                -0.28056418895721436,
                -0.085691437125206,
                -0.8989428281784058
            ],
            "type" : "VEC3"
        },
        {
            "bufferView" : 33,
            "componentType" : 5126,
            "count" : 790,
            "type" : "VEC3"
        },
        {
            "bufferView" : 34,
            "componentType" : 5123,
            "count" : 1698,
            "type" : "SCALAR"
        }
    ],
    "bufferViews" : [
        {
            "buffer" : 0,
            "byteLength" : 144,
            "byteOffset" : 0
        },
        {
            "buffer" : 0,
            "byteLength" : 144,
            "byteOffset" : 144
        },
        {
            "buffer" : 0,
            "byteLength" : 24,
            "byteOffset" : 288
        },
        {
            "buffer" : 0,
            "byteLength" : 432,
            "byteOffset" : 312
        },
        {
            "buffer" : 0,
            "byteLength" : 432,
            "byteOffset" : 744
        },
        {
            "buffer" : 0,
            "byteLength" : 72,
            "byteOffset" : 1176
        },
        {
            "buffer" : 0,
            "byteLength" : 48,
            "byteOffset" : 1248
        },
        {
            "buffer" : 0,
            "byteLength" : 48,
            "byteOffset" : 1296
        },
        {
            "buffer" : 0,
            "byteLength" : 12,
            "byteOffset" : 1344
        },
        {
            "buffer" : 0,
            "byteLength" : 720,
            "byteOffset" : 1356
        },
        {
            "buffer" : 0,
            "byteLength" : 720,
            "byteOffset" : 2076
        },
        {
            "buffer" : 0,
            "byteLength" : 120,
            "byteOffset" : 2796
        },
        {
            "buffer" : 0,
            "byteLength" : 2160,
            "byteOffset" : 2916
        },
        {
            "buffer" : 0,
            "byteLength" : 2160,
            "byteOffset" : 5076
        },
        {
            "buffer" : 0,
            "byteLength" : 360,
            "byteOffset" : 7236
        },
        {
            "buffer" : 0,
            "byteLength" : 2160,
            "byteOffset" : 7596
        },
        {
            "buffer" : 0,
            "byteLength" : 2160,
            "byteOffset" : 9756
        },
        {
            "buffer" : 0,
            "byteLength" : 1152,
            "byteOffset" : 11916
        },
        {
            "buffer" : 0,
            "byteLength" : 1152,
            "byteOffset" : 13068
        },
        {
            "buffer" : 0,
            "byteLength" : 192,
            "byteOffset" : 14220
        },
        {
            "buffer" : 0,
            "byteLength" : 3456,
            "byteOffset" : 14412
        },
        {
            "buffer" : 0,
            "byteLength" : 3456,
            "byteOffset" : 17868
        },
        {
            "buffer" : 0,
            "byteLength" : 576,
            "byteOffset" : 21324
        },
        {
            "buffer" : 0,
            "byteLength" : 54636,
            "byteOffset" : 21900
        },
        {
            "buffer" : 0,
            "byteLength" : 54636,
            "byteOffset" : 76536
        },
        {
            "buffer" : 0,
            "byteLength" : 17196,
            "byteOffset" : 131172
        },
        {
            "buffer" : 0,
            "byteLength" : 45600,
            "byteOffset" : 148368
        },
        {
            "buffer" : 0,
            "byteLength" : 45600,
            "byteOffset" : 193968
        },
        {
            "buffer" : 0,
            "byteLength" : 7992,
            "byteOffset" : 239568
        },
        {
            "buffer" : 0,
            "byteLength" : 5400,
            "byteOffset" : 247560
        },
        {
            "buffer" : 0,
            "byteLength" : 5400,
            "byteOffset" : 252960
        },
        {
            "buffer" : 0,
            "byteLength" : 936,
            "byteOffset" : 258360
        },
        {
            "buffer" : 0,
            "byteLength" : 9480,
            "byteOffset" : 259296
        },
        {
            "buffer" : 0,
            "byteLength" : 9480,
            "byteOffset" : 268776
        },
        {
            "buffer" : 0,
            "byteLength" : 3396,
            "byteOffset" : 278256
        }
    ],
    "buffers" : [
        {
            "byteLength" : 281652,
            "uri" : "data:application/octet-stream;base64,"
        }
    ]
}
